<?xml version="1.0" encoding="UTF-8" standalone="no"?>
<!DOCTYPE svg PUBLIC "-//W3C//DTD SVG 1.1//EN"
 "http://www.w3.org/Graphics/SVG/1.1/DTD/svg11.dtd">
<!-- Generated by graphviz version 2.40.1 (20161225.0304)
 -->
<!-- Title: G Pages: 1 -->
<svg width="738pt" height="599pt"
 viewBox="0.00 0.00 737.74 599.00" xmlns="http://www.w3.org/2000/svg" xmlns:xlink="http://www.w3.org/1999/xlink">
<g id="graph0" class="graph" transform="scale(1 1) rotate(0) translate(4 595)">
<title>G</title>
<polygon fill="#ffffff" stroke="transparent" points="-4,4 -4,-595 733.7425,-595 733.7425,4 -4,4"/>
<!-- A0 -->
<g id="node1" class="node">
<title>A0</title>
<polygon fill="#ffffe0" stroke="#000000" points="425.9971,-591 302.7389,-591 302.7389,-555 431.9971,-555 431.9971,-585 425.9971,-591"/>
<polyline fill="none" stroke="#000000" points="425.9971,-591 425.9971,-585 "/>
<polyline fill="none" stroke="#000000" points="431.9971,-585 425.9971,-585 "/>
<text text-anchor="middle" x="367.368" y="-570" font-family="Helvetica,sans-Serif" font-size="10.00" fill="#000000">properwatcher pipeline</text>
</g>
<!-- A1 -->
<g id="node2" class="node">
<title>A1</title>
<ellipse fill="none" stroke="#000000" cx="461.368" cy="-573" rx="11" ry="11"/>
</g>
<!-- A2 -->
<g id="node3" class="node">
<title>A2</title>
<path fill="none" stroke="#000000" d="M502.1662,-518C502.1662,-518 420.5698,-518 420.5698,-518 414.5698,-518 408.5698,-512 408.5698,-506 408.5698,-506 408.5698,-494 408.5698,-494 408.5698,-488 414.5698,-482 420.5698,-482 420.5698,-482 502.1662,-482 502.1662,-482 508.1662,-482 514.1662,-488 514.1662,-494 514.1662,-494 514.1662,-506 514.1662,-506 514.1662,-512 508.1662,-518 502.1662,-518"/>
<text text-anchor="middle" x="461.368" y="-497" font-family="Helvetica,sans-Serif" font-size="10.00" fill="#000000">execute watchers</text>
</g>
<!-- A1&#45;&gt;A2 -->
<g id="edge1" class="edge">
<title>A1&#45;&gt;A2</title>
<path fill="none" stroke="#000000" d="M461.368,-561.9129C461.368,-552.9959 461.368,-540.0618 461.368,-528.3187"/>
<polygon fill="#000000" stroke="#000000" points="461.368,-518.0186 465.8681,-528.0186 461.368,-523.0186 461.3681,-528.0186 461.3681,-528.0186 461.3681,-528.0186 461.368,-523.0186 456.8681,-528.0186 461.368,-518.0186 461.368,-518.0186"/>
</g>
<!-- A3 -->
<g id="node4" class="node">
<title>A3</title>
<polygon fill="none" stroke="#000000" points="359.368,-434 341.368,-416 359.368,-398 377.368,-416 359.368,-434"/>
</g>
<!-- A2&#45;&gt;A3 -->
<g id="edge2" class="edge">
<title>A2&#45;&gt;A3</title>
<path fill="none" stroke="#000000" d="M408.5462,-484.9302C397.2158,-479.7496 386.0983,-472.9223 377.556,-464 371.5761,-457.7541 367.5164,-449.3472 364.7803,-441.3147"/>
<polygon fill="#000000" stroke="#000000" points="361.9776,-431.5313 369.0576,-439.9053 363.3546,-436.3379 364.7317,-441.1446 364.7317,-441.1446 364.7317,-441.1446 363.3546,-436.3379 360.4057,-442.3839 361.9776,-431.5313 361.9776,-431.5313"/>
<text text-anchor="middle" x="454.774" y="-455" font-family="Helvetica,sans-Serif" font-size="10.00" fill="#000000">when all watchers have completed</text>
</g>
<!-- A4 -->
<g id="node5" class="node">
<title>A4</title>
<polygon fill="#ffffe0" stroke="#000000" points="723.6171,-434 395.1189,-434 395.1189,-398 729.6171,-398 729.6171,-428 723.6171,-434"/>
<polyline fill="none" stroke="#000000" points="723.6171,-434 723.6171,-428 "/>
<polyline fill="none" stroke="#000000" points="729.6171,-428 723.6171,-428 "/>
<text text-anchor="middle" x="562.368" y="-419" font-family="Helvetica,sans-Serif" font-size="10.00" fill="#000000">parallel scraping of all configured property portal search URLs.</text>
<text text-anchor="middle" x="562.368" y="-407" font-family="Helvetica,sans-Serif" font-size="10.00" fill="#000000">found properties are normalized and get collected for postprocessing.</text>
</g>
<!-- A2&#45;&gt;A4 -->
<g id="edge3" class="edge">
<title>A2&#45;&gt;A4</title>
<path fill="none" stroke="#000000" stroke-dasharray="5,2" d="M508.3795,-481.8968C517.6455,-476.9849 526.8233,-471.0348 534.368,-464 543.2587,-455.7102 550.1806,-443.9527 554.9179,-434.1493"/>
</g>
<!-- A5 -->
<g id="node6" class="node">
<title>A5</title>
<path fill="none" stroke="#000000" d="M288.4314,-350C288.4314,-350 244.3046,-350 244.3046,-350 238.3046,-350 232.3046,-344 232.3046,-338 232.3046,-338 232.3046,-326 232.3046,-326 232.3046,-320 238.3046,-314 244.3046,-314 244.3046,-314 288.4314,-314 288.4314,-314 294.4314,-314 300.4314,-320 300.4314,-326 300.4314,-326 300.4314,-338 300.4314,-338 300.4314,-344 294.4314,-350 288.4314,-350"/>
<text text-anchor="middle" x="266.368" y="-329" font-family="Helvetica,sans-Serif" font-size="10.00" fill="#000000">take item</text>
</g>
<!-- A3&#45;&gt;A5 -->
<g id="edge4" class="edge">
<title>A3&#45;&gt;A5</title>
<path fill="none" stroke="#000000" d="M344.7912,-412.462C328.1611,-407.7205 301.1613,-397.7696 284.809,-380 279.5725,-374.3096 275.7683,-366.9742 273.0267,-359.7587"/>
<polygon fill="#000000" stroke="#000000" points="269.9121,-350.1592 277.2787,-358.2823 271.4552,-354.9152 272.9984,-359.6711 272.9984,-359.6711 272.9984,-359.6711 271.4552,-354.9152 268.718,-361.0599 269.9121,-350.1592 269.9121,-350.1592"/>
<text text-anchor="middle" x="308.1475" y="-371" font-family="Helvetica,sans-Serif" font-size="10.00" fill="#000000">[items left]</text>
</g>
<!-- A12 -->
<g id="node13" class="node">
<title>A12</title>
<ellipse fill="none" stroke="#000000" cx="335.368" cy="-332" rx="11" ry="11"/>
<ellipse fill="none" stroke="#000000" cx="335.368" cy="-332" rx="15" ry="15"/>
</g>
<!-- A3&#45;&gt;A12 -->
<g id="edge13" class="edge">
<title>A3&#45;&gt;A12</title>
<path fill="none" stroke="#000000" d="M350.9691,-406.0302C345.7542,-399.1839 339.5066,-389.6254 336.584,-380 334.3781,-372.7352 333.5879,-364.5641 333.4853,-357.051"/>
<polygon fill="#000000" stroke="#000000" points="333.7221,-347.0313 337.9845,-357.1349 333.6039,-352.03 333.4857,-357.0286 333.4857,-357.0286 333.4857,-357.0286 333.6039,-352.03 328.987,-356.9222 333.7221,-347.0313 333.7221,-347.0313"/>
<text text-anchor="middle" x="353.76" y="-371" font-family="Helvetica,sans-Serif" font-size="10.00" fill="#000000">[empty]</text>
</g>
<!-- A6 -->
<g id="node7" class="node">
<title>A6</title>
<path fill="none" stroke="#000000" d="M300.2036,-266C300.2036,-266 232.5324,-266 232.5324,-266 226.5324,-266 220.5324,-260 220.5324,-254 220.5324,-254 220.5324,-242 220.5324,-242 220.5324,-236 226.5324,-230 232.5324,-230 232.5324,-230 300.2036,-230 300.2036,-230 306.2036,-230 312.2036,-236 312.2036,-242 312.2036,-242 312.2036,-254 312.2036,-254 312.2036,-260 306.2036,-266 300.2036,-266"/>
<text text-anchor="middle" x="266.368" y="-245" font-family="Helvetica,sans-Serif" font-size="10.00" fill="#000000">apply all filters</text>
</g>
<!-- A5&#45;&gt;A6 -->
<g id="edge5" class="edge">
<title>A5&#45;&gt;A6</title>
<path fill="none" stroke="#000000" d="M266.368,-313.7733C266.368,-302.8758 266.368,-288.7946 266.368,-276.4587"/>
<polygon fill="#000000" stroke="#000000" points="266.368,-266.1912 270.8681,-276.1911 266.368,-271.1912 266.3681,-276.1912 266.3681,-276.1912 266.3681,-276.1912 266.368,-271.1912 261.8681,-276.1912 266.368,-266.1912 266.368,-266.1912"/>
</g>
<!-- A7 -->
<g id="node8" class="node">
<title>A7</title>
<polygon fill="none" stroke="#000000" points="380.368,-193 362.368,-175 380.368,-157 398.368,-175 380.368,-193"/>
</g>
<!-- A6&#45;&gt;A7 -->
<g id="edge6" class="edge">
<title>A6&#45;&gt;A7</title>
<path fill="none" stroke="#000000" d="M295.4802,-229.8418C312.4343,-219.2058 334.1843,-205.4558 353.368,-193 355.8487,-191.3893 358.4474,-189.6823 361.0114,-187.9861"/>
<polygon fill="#000000" stroke="#000000" points="369.3733,-182.4171 363.5446,-191.7057 365.2117,-185.1887 361.0502,-187.9603 361.0502,-187.9603 361.0502,-187.9603 365.2117,-185.1887 358.5557,-184.2149 369.3733,-182.4171 369.3733,-182.4171"/>
</g>
<!-- A8 -->
<g id="node9" class="node">
<title>A8</title>
<polygon fill="#ffffe0" stroke="#000000" points="338.6041,-193 .1319,-193 .1319,-157 344.6041,-157 344.6041,-187 338.6041,-193"/>
<polyline fill="none" stroke="#000000" points="338.6041,-193 338.6041,-187 "/>
<polyline fill="none" stroke="#000000" points="344.6041,-187 338.6041,-187 "/>
<text text-anchor="middle" x="172.368" y="-172" font-family="Helvetica,sans-Serif" font-size="10.00" fill="#000000">each filter may remove the found item from the postprocessing pipeline.</text>
</g>
<!-- A6&#45;&gt;A8 -->
<g id="edge7" class="edge">
<title>A6&#45;&gt;A8</title>
<path fill="none" stroke="#000000" stroke-dasharray="5,2" d="M243.132,-229.9551C228.6703,-218.7241 210.1351,-204.3298 195.6624,-193.0904"/>
</g>
<!-- A7&#45;&gt;A3 -->
<g id="edge8" class="edge">
<title>A7&#45;&gt;A3</title>
<path fill="none" stroke="#000000" d="M380.7046,-192.6887C381.1017,-228.3695 380.597,-311.4122 369.368,-380 368.6917,-384.1309 367.7209,-388.4667 366.6471,-392.6417"/>
<polygon fill="#000000" stroke="#000000" points="363.8747,-402.48 362.2558,-391.6342 365.2309,-397.6674 366.5871,-392.8548 366.5871,-392.8548 366.5871,-392.8548 365.2309,-397.6674 370.9184,-394.0754 363.8747,-402.48 363.8747,-402.48"/>
<text text-anchor="middle" x="401.594" y="-287" font-family="Helvetica,sans-Serif" font-size="10.00" fill="#000000">[removed]</text>
</g>
<!-- A9 -->
<g id="node10" class="node">
<title>A9</title>
<path fill="none" stroke="#000000" d="M405.4329,-109C405.4329,-109 321.3031,-109 321.3031,-109 315.3031,-109 309.3031,-103 309.3031,-97 309.3031,-97 309.3031,-85 309.3031,-85 309.3031,-79 315.3031,-73 321.3031,-73 321.3031,-73 405.4329,-73 405.4329,-73 411.4329,-73 417.4329,-79 417.4329,-85 417.4329,-85 417.4329,-97 417.4329,-97 417.4329,-103 411.4329,-109 405.4329,-109"/>
<text text-anchor="middle" x="363.368" y="-88" font-family="Helvetica,sans-Serif" font-size="10.00" fill="#000000">apply all enrichers</text>
</g>
<!-- A7&#45;&gt;A9 -->
<g id="edge9" class="edge">
<title>A7&#45;&gt;A9</title>
<path fill="none" stroke="#000000" d="M377.3287,-159.9825C375.0304,-148.6259 371.8083,-132.7049 369.0386,-119.0194"/>
<polygon fill="#000000" stroke="#000000" points="367.0316,-109.1023 373.4258,-118.011 368.0234,-114.003 369.0152,-118.9036 369.0152,-118.9036 369.0152,-118.9036 368.0234,-114.003 364.6047,-119.7963 367.0316,-109.1023 367.0316,-109.1023"/>
<text text-anchor="middle" x="386.706" y="-130" font-family="Helvetica,sans-Serif" font-size="10.00" fill="#000000">[pass]</text>
</g>
<!-- A10 -->
<g id="node11" class="node">
<title>A10</title>
<path fill="none" stroke="#000000" d="M489.2125,-36C489.2125,-36 401.5235,-36 401.5235,-36 395.5235,-36 389.5235,-30 389.5235,-24 389.5235,-24 389.5235,-12 389.5235,-12 389.5235,-6 395.5235,0 401.5235,0 401.5235,0 489.2125,0 489.2125,0 495.2125,0 501.2125,-6 501.2125,-12 501.2125,-12 501.2125,-24 501.2125,-24 501.2125,-30 495.2125,-36 489.2125,-36"/>
<text text-anchor="middle" x="445.368" y="-15" font-family="Helvetica,sans-Serif" font-size="10.00" fill="#000000">notify all observers</text>
</g>
<!-- A9&#45;&gt;A10 -->
<g id="edge10" class="edge">
<title>A9&#45;&gt;A10</title>
<path fill="none" stroke="#000000" d="M383.6377,-72.9551C393.7892,-63.9177 406.2418,-52.8319 417.2971,-42.9899"/>
<polygon fill="#000000" stroke="#000000" points="425.0473,-36.0904 420.5704,-46.1008 421.3128,-39.415 417.5782,-42.7397 417.5782,-42.7397 417.5782,-42.7397 421.3128,-39.415 414.586,-39.3786 425.0473,-36.0904 425.0473,-36.0904"/>
</g>
<!-- A11 -->
<g id="node12" class="node">
<title>A11</title>
<polygon fill="#ffffe0" stroke="#000000" points="365.318,-36 149.418,-36 149.418,0 371.318,0 371.318,-30 365.318,-36"/>
<polyline fill="none" stroke="#000000" points="365.318,-36 365.318,-30 "/>
<polyline fill="none" stroke="#000000" points="371.318,-30 365.318,-30 "/>
<text text-anchor="middle" x="260.368" y="-21" font-family="Helvetica,sans-Serif" font-size="10.00" fill="#000000">enrichers add metadata to found properties.</text>
<text text-anchor="middle" x="260.368" y="-9" font-family="Helvetica,sans-Serif" font-size="10.00" fill="#000000">This could for instance be geocoordinates.</text>
</g>
<!-- A9&#45;&gt;A11 -->
<g id="edge12" class="edge">
<title>A9&#45;&gt;A11</title>
<path fill="none" stroke="#000000" stroke-dasharray="5,2" d="M337.9073,-72.9551C322.061,-61.7241 301.7511,-47.3298 285.8928,-36.0904"/>
</g>
<!-- A10&#45;&gt;A3 -->
<g id="edge11" class="edge">
<title>A10&#45;&gt;A3</title>
<path fill="none" stroke="#000000" d="M445.368,-36.3003C445.368,-51.0651 445.368,-72.3698 445.368,-91 445.368,-332 445.368,-332 445.368,-332 445.368,-350.5763 403.785,-383.9342 378.4492,-402.5346"/>
<polygon fill="#000000" stroke="#000000" points="370.26,-408.4499 375.7314,-398.9465 374.3132,-405.5221 378.3664,-402.5944 378.3664,-402.5944 378.3664,-402.5944 374.3132,-405.5221 381.0013,-406.2423 370.26,-408.4499 370.26,-408.4499"/>
</g>
</g>
</svg>
